# xmcd CD database file
#
# Track frame offsets:
#	150
#	13579
#	27791
#	38112
#	52709
#	63336
#	73653
#	87034
#	102133
#	112158
#
# Disc length: 1659 seconds
#
# Revision: 0
# Processed by: cddbd v1.5PL3 Copyright (c) Steve Scherf et al.
# Submitted via: CDex 1.51
#
DISCID=7506790a
DTITLE=Alberto Vazquez - Con Orquesta - Disco 3
DYEAR=1900
DGENRE=Español
TTITLE0=Nido de cristal
TTITLE1=El Cid
TTITLE2=Amor
TTITLE3=Serenata a la luz de la luna
TTITLE4=Eres irresistible
TTITLE5=Dalila
TTITLE6=Bote de bananas
TTITLE7=Quizas en la eternidad
TTITLE8=El amor es triste
TTITLE9=Destino del payaso
EXTD=
EXTT0=
EXTT1=
EXTT2=
EXTT3=
EXTT4=
EXTT5=
EXTT6=
EXTT7=
EXTT8=
EXTT9=
PLAYORDER=
